HIERARCHY
ROOT hip
{
	OFFSET 0.000000 0.000000 0.000000 
	CHANNELS 6 Xposition Yposition Zposition Xrotation Zrotation Yrotation
	JOINT abdomen
	{
		OFFSET 0.000000 3.402643 0.000000 
		CHANNELS 3 Xrotation Zrotation Yrotation
		JOINT chest
		{
			OFFSET 0.000000 8.438565 -0.680529 
			CHANNELS 3 Xrotation Zrotation Yrotation
			JOINT neck
			{
				OFFSET 0.000000 10.207942 -0.272212 
				CHANNELS 3 Xrotation Zrotation Yrotation
				JOINT head
				{
					OFFSET 0.000000 3.130431 0.000000 
					CHANNELS 3 Xrotation Zrotation Yrotation
					End Site
					{
						OFFSET 0.000000 3.130435 0.000000 
					}
				}
			}
			JOINT lCollar
			{
				OFFSET 3.470700 6.669187 -0.816635 
				CHANNELS 3 Yrotation Zrotation Xrotation
				JOINT lShldr
				{
					OFFSET 3.198488 0.000000 0.000000 
					CHANNELS 3 Zrotation Yrotation Xrotation
					JOINT lForeArm
					{
						OFFSET 10.139888 0.000000 0.000000 
						CHANNELS 3 Yrotation Zrotation Xrotation
						JOINT lHand
						{
							OFFSET 8.370511 0.000000 0.000000 
							CHANNELS 3 Zrotation Yrotation Xrotation
							End Site
							{
								OFFSET 4.083176 0.000000 0.000000 
							}
						}
					}
				}
			}
			JOINT rCollar
			{
				OFFSET -3.470700 6.669187 -0.816635 
				CHANNELS 3 Yrotation Zrotation Xrotation
				JOINT rShldr
				{
					OFFSET -3.198488 0.000000 0.000000 
					CHANNELS 3 Zrotation Yrotation Xrotation
					JOINT rForeArm
					{
						OFFSET -10.139888 0.000000 0.000000 
						CHANNELS 3 Yrotation Zrotation Xrotation
						JOINT rHand
						{
							OFFSET -8.370511 0.000000 0.000000 
							CHANNELS 3 Zrotation Yrotation Xrotation
							End Site
							{
								OFFSET -4.083176 0.000000 0.000000 
							}
						}
					}
				}
			}
		}
	}
	JOINT lThigh
	{
		OFFSET 5.308129 -1.633274 1.361059 
		CHANNELS 3 Xrotation Zrotation Yrotation
		JOINT lShin
		{
			OFFSET -2.041588 -20.007561 0.000000 
			CHANNELS 3 Xrotation Zrotation Yrotation
			JOINT lFoot
			{
				OFFSET 0.000000 -19.190928 -1.224953 
				CHANNELS 3 Xrotation Yrotation Zrotation
				End Site
				{
					OFFSET 0.000000 -2.449906 4.627600 
				}
			}
		}
	}
	JOINT rThigh
	{
		OFFSET -5.308129 -1.633274 1.361059 
		CHANNELS 3 Xrotation Zrotation Yrotation
		JOINT rShin
		{
			OFFSET 2.041588 -20.007561 0.000000 
			CHANNELS 3 Xrotation Zrotation Yrotation
			JOINT rFoot
			{
				OFFSET 0.000000 -19.190928 -1.224953 
				CHANNELS 3 Xrotation Yrotation Zrotation
				End Site
				{
					OFFSET 0.000000 -2.449906 4.627600 
				}
			}
		}
	}
}
MOTION
Frames: 19
Frame Time: 0.033333
-5.420787 46.519428 -8.324839 16.816406 3.417969 -9.912111 34.924763 -19.245302 -3.723522 -16.191408 9.873048 10.058594 26.585470 -6.641024 -0.611562 -32.392582 0.146484 14.365240 2.000000 -2.000000 0.000000 -57.890629 10.126954 13.720704 -99.065216 47.475681 32.964355 -45.741417 -39.233410 21.622654 -2.000000 2.000000 0.000000 43.945313 -6.093750 113.056648 28.593596 -34.965843 24.425150 48.905087 52.699169 9.667110 -24.511072 27.165792 25.286819 54.965904 -1.108303 -2.663330 -2.810604 -13.025018 -10.817206 -33.481297 -14.021601 -1.757204 53.738865 9.460959 6.019806 -4.658834 -2.891612 13.972294 
-4.867867 46.835796 -8.183778 16.835938 3.515625 -11.005260 34.924763 -19.245302 -3.723522 -15.996093 10.273438 10.187287 26.275599 -6.479250 -0.586634 -31.630859 -0.048828 15.595695 2.000000 -2.000000 0.000000 -55.478516 7.656250 13.995443 -102.542877 50.838795 40.294983 -44.166477 -37.577171 19.027344 -2.000000 2.000000 0.000000 42.470707 -11.748047 113.865204 31.312119 -34.709888 21.668009 51.523094 52.251038 14.457947 -21.688120 26.303446 25.396105 47.828655 -0.082074 -2.118960 -1.502814 -16.497612 -11.531404 -32.384262 -14.254075 -1.939658 51.368828 9.139556 5.786408 -3.287544 -2.050912 14.771433 
-4.251932 46.997578 -8.026668 16.767578 3.007813 -12.382298 34.924763 -19.245302 -3.723522 -15.742188 11.357422 10.468750 26.158232 -4.343005 -0.438366 -30.800785 -0.048828 16.464846 2.000000 -2.000000 0.000000 -54.365234 5.781250 14.365232 -105.402740 54.032860 46.943256 -46.190006 -37.376045 20.197592 -2.000000 2.000000 0.000000 40.878906 -17.402344 115.426765 31.010897 -34.503933 12.667112 55.322647 51.174835 20.770760 -18.456739 25.506144 25.559980 41.136402 0.758608 -1.571222 -0.574619 -19.523399 -12.232516 -31.344080 -13.923828 -1.850028 49.388485 8.945385 5.508946 -2.207722 -1.354916 15.822104 
-3.514712 47.016697 -7.834786 16.416016 2.275391 -14.052346 34.924763 -19.245302 -3.723522 -15.117188 12.841797 10.917970 25.582420 -1.706320 -0.245589 -30.468754 0.058594 16.904301 2.000000 -2.000000 0.000000 -53.730469 4.882813 14.912941 -107.721268 56.372597 51.632565 -49.206989 -37.891300 22.740677 -2.000000 2.000000 0.000000 39.179691 -22.441406 117.164246 28.795071 -34.450340 1.477210 60.026817 49.349030 27.361223 -14.970277 24.624817 25.657738 35.964779 0.827184 -1.302202 -1.028430 -20.370659 -11.940351 -30.198647 -13.620235 -1.838857 47.831318 8.711082 5.331303 -1.497123 -0.310566 16.721157 
-2.586361 46.912525 -7.671531 16.250002 2.177749 -15.810272 34.924763 -19.245302 -3.723522 -14.619141 14.121095 11.310976 24.306568 -0.298118 -0.142554 -30.507813 0.000000 17.099609 2.000000 -2.000000 0.000000 -53.066406 5.078125 15.771484 -109.289803 57.827106 53.706726 -51.147751 -38.146664 24.359026 -2.000000 2.000000 0.000000 37.548824 -26.494141 118.535156 25.462976 -35.072525 -7.737802 63.400711 47.678204 31.585482 -12.372376 22.911013 25.170782 32.866367 0.017161 -1.275560 -2.790694 -17.613264 -10.879650 -29.996189 -14.090102 -1.967280 46.938931 8.143954 5.085729 -0.891200 1.546976 17.134445 
-1.500497 46.766335 -7.570093 16.123047 2.968750 -17.353008 34.924763 -19.245302 -3.723522 -14.228516 14.785155 11.545461 22.607012 -0.604750 -0.145546 -30.498049 -0.283203 17.138687 2.000000 -2.000000 0.000000 -52.314453 6.035156 16.884766 -109.931557 58.548691 54.363438 -51.628468 -38.388866 24.634531 -2.000000 2.000000 0.000000 36.132813 -29.296873 119.042969 22.120090 -35.885124 -13.975714 64.733177 46.727020 33.269760 -11.425760 20.468565 24.173300 32.072098 -1.017800 -1.520112 -5.602571 -12.427564 -8.716141 -30.776098 -15.417301 -2.398379 46.662621 7.040017 4.793364 0.022028 3.790301 17.580320 
-0.316792 46.649612 -7.533280 15.966799 4.570313 -18.739458 34.924763 -19.245302 -3.723522 -13.935546 14.687502 11.574741 21.049160 -2.122082 -0.251856 -29.960939 -0.439453 17.421879 2.000000 -2.000000 0.000000 -51.875000 7.343750 17.384062 -108.594772 58.228237 53.684830 -50.962837 -39.045227 24.124622 -2.000000 2.000000 0.000000 34.970703 -30.722658 119.013672 19.383215 -36.418308 -18.257099 65.035767 46.191978 33.738705 -11.943435 17.636070 22.843044 32.894501 -1.995185 -1.772048 -8.239457 -7.563166 -6.664495 -32.545025 -17.410076 -2.933953 46.885712 5.545905 4.466947 1.596955 5.959037 18.002665 
0.926609 46.578007 -7.543772 15.791017 6.777344 -20.291817 34.924763 -19.245302 -3.723522 -13.808595 14.091798 11.455077 19.785486 -3.928151 -0.373385 -29.296877 -0.126953 18.183596 2.000000 -2.000000 0.000000 -53.857422 8.896484 16.456589 -105.045410 56.418446 51.573082 -49.258553 -40.246342 22.984491 -2.000000 2.000000 0.000000 33.691402 -30.693361 118.876953 17.682447 -36.867813 -20.657112 64.913826 45.904606 33.686707 -13.093818 14.701946 21.563745 34.068756 -2.941271 -2.064178 -9.999520 -4.604026 -5.526072 -35.565456 -19.677359 -3.548217 47.951160 3.857006 4.220859 4.437489 7.782176 18.096104 
2.157858 46.561405 -7.580952 15.097657 8.593750 -22.479010 34.924763 -19.245302 -3.723522 -12.812500 13.701173 11.533202 18.216740 -5.304374 -0.460093 -28.691408 0.888672 19.511723 2.000000 -2.000000 0.000000 -56.640625 10.976563 14.454986 -101.012245 53.468906 49.478943 -46.482670 -41.647442 21.004786 -2.000000 2.000000 0.000000 32.011719 -29.150394 118.481567 17.271204 -37.596172 -20.768524 64.159889 45.905067 32.939342 -13.669209 12.494666 20.630476 35.504002 -4.284739 -2.429862 -11.669881 -2.453780 -4.693573 -39.312351 -21.189154 -3.849890 50.502655 2.284969 4.120712 8.083116 8.063433 17.828777 
3.299686 46.511497 -7.684797 14.619141 10.068359 -24.765623 34.924763 -19.245302 -3.723522 -11.845704 13.408203 11.640625 16.290735 -5.463233 -0.465711 -28.203127 2.246094 20.917971 2.000000 -2.000000 0.000000 -59.804684 13.251954 12.189739 -97.722984 49.700386 48.537682 -43.365425 -42.831501 18.543484 -2.000000 2.000000 0.000000 30.361328 -26.855469 117.724609 17.370375 -38.454185 -20.024231 62.916958 46.136299 31.844534 -14.438376 10.822301 19.959131 36.716248 -5.593528 -2.791148 -13.042357 -0.414736 -3.347112 -44.386932 -21.665905 -3.742468 55.334400 0.752060 4.248187 10.788102 5.882516 17.648594 
4.236806 46.387047 -7.837827 14.296874 10.761719 -26.142576 34.924763 -19.245302 -3.723522 -10.908202 13.212892 11.760046 14.555286 -4.454484 -0.391880 -27.919922 3.164063 21.484915 2.000000 -2.000000 0.000000 -62.490234 14.980470 10.793541 -95.203209 45.146049 47.888382 -39.844170 -43.240849 15.418066 -2.000000 2.000000 0.000000 29.580078 -25.068357 116.582024 16.417557 -39.554153 -20.137873 61.379707 46.460121 30.283941 -15.875649 9.937236 19.499622 38.685894 -6.297738 -3.066908 -14.236042 0.803145 -1.888441 -49.069443 -21.444187 -3.352210 62.038082 -0.146348 4.675114 10.988864 1.491780 17.608084 
4.959202 46.126762 -8.009774 14.453126 11.259767 -26.101608 34.924763 -19.245302 -3.723522 -10.908203 12.880860 11.679688 13.851604 -3.534064 -0.314432 -28.193363 3.261719 21.289063 2.000000 -2.000000 0.000000 -62.949215 15.673829 10.549515 -93.511757 39.639553 46.661579 -36.810455 -42.196262 12.100656 -2.000000 2.000000 0.000000 30.224611 -24.599611 115.943199 12.228522 -40.650269 -23.849136 59.510025 46.818916 28.349401 -18.491648 9.077573 18.920784 41.448769 -5.995639 -3.149444 -15.403330 1.296883 -0.815954 -52.739574 -21.404299 -3.102017 69.293976 -0.234208 5.319936 9.310973 -3.554951 17.087955 
5.480836 45.810379 -8.100963 14.199220 11.298828 -25.183634 34.924763 -19.245302 -3.723522 -11.064453 12.597657 11.593927 15.048541 -3.984621 -0.354296 -29.179688 3.232422 21.406252 2.000000 -2.000000 0.000000 -59.433594 15.439453 11.679688 -92.283340 35.285015 43.860409 -35.859535 -40.107681 10.054852 -2.000000 2.000000 0.000000 32.460938 -24.931643 116.353310 3.915174 -40.515434 -32.368320 56.094662 46.966816 24.600924 -20.146410 7.929672 18.349634 43.413498 -5.120369 -3.060123 -16.217127 1.193285 -0.015410 -53.464035 -21.737324 -3.185162 74.703781 0.947326 6.076756 7.688250 -7.961621 16.205833 
5.840820 45.519939 -8.075732 13.466797 11.552734 -24.158201 34.924763 -19.245302 -3.723522 -11.796874 11.894532 11.310605 19.147713 -5.777137 -0.516065 -30.341801 4.140624 23.281252 2.000000 -2.000000 0.000000 -55.449219 13.730469 12.726928 -88.043022 34.579365 36.418713 -35.773785 -38.966904 9.942257 -2.000000 2.000000 0.000000 36.679688 -24.462891 117.910156 -6.823330 -35.987793 -45.346142 49.004250 46.225353 17.266754 -20.697685 6.343765 17.790716 44.613220 -4.394745 -2.960199 -16.946962 1.055607 0.513521 -51.041878 -22.127457 -3.476520 76.172356 2.812654 6.582971 6.733593 -11.138497 16.311438 
6.070182 45.266243 -7.970766 12.783204 12.656251 -23.152155 34.924763 -19.245302 -3.723522 -13.828124 10.244142 10.558377 25.579573 -7.199188 -0.644538 -31.074223 5.947265 25.791016 2.000000 -2.000000 0.000000 -60.976563 10.683594 11.906108 -76.556099 37.085342 18.845701 -31.985899 -38.327854 9.437610 -2.000000 2.000000 0.000000 42.822262 -21.992186 119.335930 -14.894737 -26.376646 -57.948650 37.387585 42.928860 5.609033 -20.636219 4.281925 17.143602 44.707626 -4.329132 -2.914183 -17.300840 0.978100 0.994897 -47.111538 -22.535112 -3.858291 73.926254 4.414030 6.761023 4.107137 -14.330903 17.322048 
6.176105 45.095016 -7.883957 12.392578 14.033203 -22.585520 34.924763 -19.245302 -3.723522 -16.220703 8.046876 9.658203 31.355478 -7.995443 -0.748742 -31.298834 7.910156 27.939457 2.000000 -2.000000 0.000000 -69.160156 8.632813 9.688967 -60.215038 39.084431 -12.542261 -26.360167 -34.599720 9.498796 -2.000000 2.000000 0.000000 50.224609 -17.070313 119.609367 -18.853397 -14.733109 -70.483307 26.146080 37.116367 -4.431757 -20.820297 2.637061 16.615206 44.826393 -4.586545 -2.986165 -17.560204 1.145918 1.137832 -43.991871 -22.225338 -3.934516 70.663269 4.511486 6.483694 1.242449 -17.152124 19.522684 
6.236851 45.015049 -7.915652 12.617188 14.794922 -22.849070 34.924763 -19.245302 -3.723522 -17.851563 6.728516 9.082031 33.243980 -9.573242 -0.861330 -31.513674 9.628906 29.111328 2.000000 -2.000000 0.000000 -77.187500 9.296875 6.808220 -50.012310 38.243942 -43.505978 -18.426445 -30.901064 9.731560 -2.000000 2.000000 0.000000 57.109375 -10.546875 118.789063 -20.442190 -6.536909 -83.454353 18.624180 31.903404 -9.365802 -21.337856 2.158541 16.429657 44.779675 -4.928515 -3.076328 -17.515305 1.896992 0.963539 -44.323444 -20.867870 -3.462516 69.918594 2.939471 6.070699 1.034451 -18.973133 20.677816 
6.254752 45.185356 -8.099968 12.568360 13.671875 -23.708628 34.924763 -19.245302 -3.723522 -16.699219 7.236329 9.395761 30.743917 -12.338817 -1.050842 -31.923826 10.908202 30.275288 2.000000 -2.000000 0.000000 -83.183594 12.656251 4.980468 -47.459171 35.868828 -56.343334 -8.925259 -30.100657 7.754729 -2.000000 2.000000 0.000000 61.298832 -4.003906 117.889938 -20.813583 -6.333153 -93.464005 14.042897 29.500385 -10.459063 -20.597862 3.199208 16.834778 43.837360 -4.774987 -2.987920 -16.903633 2.292268 0.717672 -46.478821 -19.030897 -2.719034 72.101288 1.845807 6.031541 4.982565 -18.344933 20.192677 
6.211418 45.555817 -8.342912 12.568360 11.933594 -23.865168 34.924763 -19.245302 -3.723522 -14.453126 8.154297 10.000001 26.010105 -15.235010 -1.249430 -31.679688 12.568359 32.802731 2.000000 -2.000000 0.000000 -86.582031 18.310549 4.228516 -49.861488 30.998400 -50.568569 -3.579078 -29.592089 5.128872 -2.000000 2.000000 0.000000 62.509769 1.718750 117.226852 -20.592358 -13.571280 -95.691521 9.959893 29.855579 -10.494473 -19.446896 4.507740 17.364155 42.107693 -4.250510 -2.795622 -15.652176 1.866355 0.411284 -49.543911 -18.757324 -2.419824 75.765808 2.285003 6.457564 8.720190 -16.138603 18.254406 
